<?xml version="1.0" encoding="UTF-8"?>
<!DOCTYPE svg PUBLIC "-//W3C//DTD SVG 1.1//EN" "http://www.w3.org/Graphics/SVG/1.1/DTD/svg11.dtd">
<svg xmlns="http://www.w3.org/2000/svg" version="1.1" width="611px" height="610px" style="shape-rendering:geometricPrecision; text-rendering:geometricPrecision; image-rendering:optimizeQuality; fill-rule:evenodd; clip-rule:evenodd" xmlns:xlink="http://www.w3.org/1999/xlink">
<g><path style="opacity:0.959" fill="#f8d201" d="M 287.5,-0.5 C 299.167,-0.5 310.833,-0.5 322.5,-0.5C 407.313,5.99145 478.147,40.6581 535,103.5C 541.752,112.018 548.252,120.684 554.5,129.5C 552.5,131.167 550.5,132.833 548.5,134.5C 477.902,47.2104 386.235,7.7104 273.5,16C 185.746,26.3699 115.079,66.5365 61.5,136.5C 59.2733,134.393 57.2733,132.06 55.5,129.5C 96.0465,72.1673 150.047,33.0006 217.5,12C 240.57,5.54556 263.903,1.37889 287.5,-0.5 Z"/></g>
<g><path style="opacity:1" fill="#3f6b98" d="M 548.5,134.5 C 531.574,153.637 512.574,170.47 491.5,185C 458.177,207.665 424.177,229.332 389.5,250C 379.699,258.553 375.033,269.387 375.5,282.5C 380.361,300.731 376.027,316.231 362.5,329C 354.996,333.587 347.329,337.92 339.5,342C 337.174,343.805 335.508,345.972 334.5,348.5C 331.541,338 329.541,327.333 328.5,316.5C 343.298,303.711 347.131,288.045 340,269.5C 330.263,252.049 315.429,244.883 295.5,248C 272.021,255.774 262.521,271.941 267,296.5C 269.191,304.237 273.357,310.57 279.5,315.5C 278.376,326.448 276.376,337.115 273.5,347.5C 272.883,345.771 271.883,344.271 270.5,343C 258.22,337.608 247.386,330.108 238,320.5C 235.781,316.729 234.115,312.729 233,308.5C 232.289,299.816 232.455,291.149 233.5,282.5C 233.571,269.524 228.904,258.69 219.5,250C 183.031,228.518 147.364,205.851 112.5,182C 103.5,175 94.5,168 85.5,161C 77.2976,152.965 69.2976,144.798 61.5,136.5C 115.079,66.5365 185.746,26.3699 273.5,16C 386.235,7.7104 477.902,47.2104 548.5,134.5 Z"/></g>
<g><path style="opacity:0.999" fill="#fbfbfb" d="M 554.5,129.5 C 568.656,148.801 579.989,169.801 588.5,192.5C 575.135,203.348 560.801,212.848 545.5,221C 512.307,239.431 478.64,257.098 444.5,274C 436.5,278.667 428.5,283.333 420.5,288C 428.589,286.307 436.589,283.974 444.5,281C 484.064,266.368 523.064,250.368 561.5,233C 571.57,228.216 581.403,223.049 591,217.5C 591.888,239.898 583.388,258.064 565.5,272C 556.168,277.109 546.501,281.443 536.5,285C 508.564,294.868 480.564,304.534 452.5,314C 440.721,318.39 429.054,323.057 417.5,328C 434.609,325.578 451.609,322.245 468.5,318C 502.319,309.962 535.986,301.462 569.5,292.5C 564.549,320.616 548.215,337.783 520.5,344C 482.293,350.308 444.293,357.641 406.5,366C 447.697,366.761 488.697,364.261 529.5,358.5C 521.596,382.554 504.929,395.72 479.5,398C 469.84,398.637 460.174,399.137 450.5,399.5C 429.494,398.666 408.494,398.166 387.5,398C 421.131,409.792 455.797,416.459 491.5,418C 477.73,444.049 456.73,452.715 428.5,444C 419.612,441.222 410.945,437.888 402.5,434C 391.479,427.992 380.479,422.325 369.5,417C 383.463,438.299 401.796,454.632 424.5,466C 429.511,467.67 434.511,469.337 439.5,471C 431.322,480.592 420.989,484.925 408.5,484C 405.734,482.533 403.234,480.7 401,478.5C 395,470.5 389,462.5 383,454.5C 385.423,464.375 388.756,474.042 393,483.5C 401.225,502.951 409.725,522.284 418.5,541.5C 411.025,555.808 399.858,566.141 385,572.5C 379.055,551.387 373.722,530.054 369,508.5C 356.75,455.061 345.25,401.728 334.5,348.5C 335.508,345.972 337.174,343.805 339.5,342C 347.329,337.92 354.996,333.587 362.5,329C 376.027,316.231 380.361,300.731 375.5,282.5C 375.033,269.387 379.699,258.553 389.5,250C 424.177,229.332 458.177,207.665 491.5,185C 512.574,170.47 531.574,153.637 548.5,134.5C 550.5,132.833 552.5,131.167 554.5,129.5 Z"/></g>
<g><path style="opacity:0.999" fill="#f9fafa" d="M 55.5,129.5 C 57.2733,132.06 59.2733,134.393 61.5,136.5C 69.2976,144.798 77.2976,152.965 85.5,161C 94.5,168 103.5,175 112.5,182C 147.364,205.851 183.031,228.518 219.5,250C 228.904,258.69 233.571,269.524 233.5,282.5C 232.455,291.149 232.289,299.816 233,308.5C 234.115,312.729 235.781,316.729 238,320.5C 247.386,330.108 258.22,337.608 270.5,343C 271.883,344.271 272.883,345.771 273.5,347.5C 274.018,348.577 274.352,349.744 274.5,351C 259.528,425.195 243.028,499.028 225,572.5C 210.188,565.855 198.688,555.522 190.5,541.5C 203.604,513.293 215.604,484.626 226.5,455.5C 225.645,454.707 224.811,455.04 224,456.5C 218.913,464.341 213.58,472.008 208,479.5C 201.176,485.234 193.676,486.067 185.5,482C 179.741,479.124 174.741,475.291 170.5,470.5C 183.827,467.234 195.827,461.401 206.5,453C 217.702,443.465 227.869,432.965 237,421.5C 238.289,419.945 238.956,418.279 239,416.5C 219.246,428.292 198.413,437.792 176.5,445C 148.863,451.596 129.363,442.096 118,416.5C 152.873,416.393 186.706,410.227 219.5,398C 200.514,398.238 181.514,398.738 162.5,399.5C 147.413,399.296 132.413,398.129 117.5,396C 98.794,390.127 86.1274,377.961 79.5,359.5C 80.3333,359.167 81.1667,358.833 82,358.5C 121.967,364.289 162.134,366.789 202.5,366C 166.056,357.845 129.389,350.845 92.5,345C 62.7601,339.928 44.7601,322.594 38.5,293C 73.3109,302.033 108.311,310.7 143.5,319C 159.701,323.041 176.034,326.041 192.5,328C 156.049,314.405 119.383,301.405 82.5,289C 70.2707,284.552 58.2707,279.552 46.5,274C 33.456,265.456 24.6227,253.622 20,238.5C 17.647,231.489 16.4804,224.489 16.5,217.5C 39.9843,230.573 64.3176,242.073 89.5,252C 110.5,260.333 131.5,268.667 152.5,277C 164.275,281.705 176.275,285.372 188.5,288C 150.04,267.936 111.706,247.603 73.5,227C 55.1298,216.822 37.4631,205.656 20.5,193.5C 29.6139,170.593 41.2806,149.259 55.5,129.5 Z"/></g>
<g><path style="opacity:0.995" fill="#010511" d="M 588.5,192.5 C 611.031,250.228 615.864,309.562 603,370.5C 578.886,467.591 522.053,538.091 432.5,582C 397.362,597.785 360.695,606.951 322.5,609.5C 310.833,609.5 299.167,609.5 287.5,609.5C 185.302,600.504 105.469,553.837 48,469.5C -4.79084,381.925 -13.9575,289.925 20.5,193.5C 37.4631,205.656 55.1298,216.822 73.5,227C 111.706,247.603 150.04,267.936 188.5,288C 176.275,285.372 164.275,281.705 152.5,277C 131.5,268.667 110.5,260.333 89.5,252C 64.3176,242.073 39.9843,230.573 16.5,217.5C 16.4804,224.489 17.647,231.489 20,238.5C 24.6227,253.622 33.456,265.456 46.5,274C 58.2707,279.552 70.2707,284.552 82.5,289C 119.383,301.405 156.049,314.405 192.5,328C 176.034,326.041 159.701,323.041 143.5,319C 108.311,310.7 73.3109,302.033 38.5,293C 44.7601,322.594 62.7601,339.928 92.5,345C 129.389,350.845 166.056,357.845 202.5,366C 162.134,366.789 121.967,364.289 82,358.5C 81.1667,358.833 80.3333,359.167 79.5,359.5C 86.1274,377.961 98.794,390.127 117.5,396C 132.413,398.129 147.413,399.296 162.5,399.5C 181.514,398.738 200.514,398.238 219.5,398C 186.706,410.227 152.873,416.393 118,416.5C 129.363,442.096 148.863,451.596 176.5,445C 198.413,437.792 219.246,428.292 239,416.5C 238.956,418.279 238.289,419.945 237,421.5C 227.869,432.965 217.702,443.465 206.5,453C 195.827,461.401 183.827,467.234 170.5,470.5C 174.741,475.291 179.741,479.124 185.5,482C 193.676,486.067 201.176,485.234 208,479.5C 213.58,472.008 218.913,464.341 224,456.5C 224.811,455.04 225.645,454.707 226.5,455.5C 215.604,484.626 203.604,513.293 190.5,541.5C 198.688,555.522 210.188,565.855 225,572.5C 243.028,499.028 259.528,425.195 274.5,351C 274.352,349.744 274.018,348.577 273.5,347.5C 276.376,337.115 278.376,326.448 279.5,315.5C 295.597,327.102 311.931,327.435 328.5,316.5C 329.541,327.333 331.541,338 334.5,348.5C 345.25,401.728 356.75,455.061 369,508.5C 373.722,530.054 379.055,551.387 385,572.5C 399.858,566.141 411.025,555.808 418.5,541.5C 409.725,522.284 401.225,502.951 393,483.5C 388.756,474.042 385.423,464.375 383,454.5C 389,462.5 395,470.5 401,478.5C 403.234,480.7 405.734,482.533 408.5,484C 420.989,484.925 431.322,480.592 439.5,471C 434.511,469.337 429.511,467.67 424.5,466C 401.796,454.632 383.463,438.299 369.5,417C 380.479,422.325 391.479,427.992 402.5,434C 410.945,437.888 419.612,441.222 428.5,444C 456.73,452.715 477.73,444.049 491.5,418C 455.797,416.459 421.131,409.792 387.5,398C 408.494,398.166 429.494,398.666 450.5,399.5C 460.174,399.137 469.84,398.637 479.5,398C 504.929,395.72 521.596,382.554 529.5,358.5C 488.697,364.261 447.697,366.761 406.5,366C 444.293,357.641 482.293,350.308 520.5,344C 548.215,337.783 564.549,320.616 569.5,292.5C 535.986,301.462 502.319,309.962 468.5,318C 451.609,322.245 434.609,325.578 417.5,328C 429.054,323.057 440.721,318.39 452.5,314C 480.564,304.534 508.564,294.868 536.5,285C 546.501,281.443 556.168,277.109 565.5,272C 583.388,258.064 591.888,239.898 591,217.5C 581.403,223.049 571.57,228.216 561.5,233C 523.064,250.368 484.064,266.368 444.5,281C 436.589,283.974 428.589,286.307 420.5,288C 428.5,283.333 436.5,278.667 444.5,274C 478.64,257.098 512.307,239.431 545.5,221C 560.801,212.848 575.135,203.348 588.5,192.5 Z"/></g>
<g><path style="opacity:1" fill="#fed800" d="M 328.5,316.5 C 311.931,327.435 295.597,327.102 279.5,315.5C 273.357,310.57 269.191,304.237 267,296.5C 262.521,271.941 272.021,255.774 295.5,248C 315.429,244.883 330.263,252.049 340,269.5C 347.131,288.045 343.298,303.711 328.5,316.5 Z"/></g>
<g><path style="opacity:1" fill="#69b2fc" d="M 301.5,399.5 C 303.527,399.338 305.527,399.505 307.5,400C 308.191,401.067 308.691,402.234 309,403.5C 311.167,418.838 313.334,434.171 315.5,449.5C 315.392,450.442 315.059,451.275 314.5,452C 307.842,452.5 301.175,452.666 294.5,452.5C 295.937,434.666 298.271,417 301.5,399.5 Z"/></g>
<g><path style="opacity:1" fill="#69b2fb" d="M 289.5,483.5 C 299.506,483.334 309.506,483.5 319.5,484C 324.647,516.176 328.981,548.509 332.5,581C 332.498,583.586 331.498,585.586 329.5,587C 321.552,591.558 313.385,595.724 305,599.5C 295.646,595.24 286.479,590.573 277.5,585.5C 277.167,584 276.833,582.5 276.5,581C 280.508,548.447 284.841,515.947 289.5,483.5 Z"/></g>
</svg>
